<svg width="24" height="25" viewBox="0 0 24 25" fill="none" xmlns="http://www.w3.org/2000/svg">
<path d="M4.91636 3.87483C4.81338 3.77925 4.67836 3.72567 4.53787 3.72462C4.39737 3.72358 4.26157 3.77515 4.15719 3.86919C4.0528 3.96323 3.98739 4.09294 3.97382 4.23278C3.96025 4.37262 3.9995 4.51248 4.08386 4.62483L6.04136 6.78108C2.54636 8.83421 1.05104 12.1248 0.986357 12.272C0.954306 12.344 0.937744 12.422 0.937744 12.5008C0.937744 12.5796 0.954306 12.6575 0.986357 12.7295C1.01823 12.8017 1.79823 14.5314 3.54011 16.2733C5.15636 17.8876 7.93323 19.8123 12.0001 19.8123C13.7 19.8227 15.3818 19.4628 16.9285 18.7576L19.0848 21.1286C19.1852 21.239 19.3254 21.305 19.4745 21.312C19.6236 21.319 19.7694 21.2665 19.8798 21.1661C19.9902 21.0656 20.0562 20.9254 20.0632 20.7764C20.0702 20.6273 20.0177 20.4815 19.9173 20.3711L4.91636 3.87483ZM9.47448 10.5611L13.6932 15.2036C13.0598 15.5994 12.3076 15.7602 11.5677 15.6579C10.8279 15.5556 10.1474 15.1968 9.64514 14.6441C9.14285 14.0913 8.85061 13.3798 8.81941 12.6335C8.78822 11.8873 9.02007 11.1538 9.47448 10.5611ZM12.0001 18.6873C9.05823 18.6873 6.48948 17.6167 4.36417 15.5064C3.47303 14.6212 2.71909 13.6078 2.12729 12.4998C2.52948 11.7311 4.01167 9.20171 6.8148 7.63327L8.70854 9.71546C8.03431 10.5144 7.67325 11.5311 7.69254 12.5763C7.71183 13.6216 8.11016 14.6242 8.81342 15.3978C9.51668 16.1713 10.477 16.663 11.5157 16.7815C12.5544 16.8999 13.6007 16.637 14.4601 16.0417L16.1298 17.8792C14.8208 18.4209 13.4167 18.6956 12.0001 18.6873ZM12.6001 9.36858C12.4535 9.34061 12.3241 9.25556 12.2402 9.13214C12.1563 9.00871 12.1249 8.85703 12.1529 8.71046C12.1809 8.56389 12.2659 8.43443 12.3894 8.35056C12.5128 8.2667 12.6645 8.2353 12.811 8.26327C13.727 8.44121 14.5609 8.91038 15.1886 9.60084C15.8162 10.2913 16.2039 11.1661 16.2939 12.0948C16.3007 12.1684 16.293 12.2426 16.2711 12.3132C16.2493 12.3837 16.2138 12.4493 16.1666 12.5062C16.1194 12.563 16.0615 12.61 15.9961 12.6445C15.9308 12.6789 15.8593 12.7002 15.7857 12.707H15.7332C15.5926 12.7076 15.4568 12.6555 15.3527 12.5609C15.2485 12.4663 15.1836 12.3362 15.1707 12.1961C15.1039 11.5108 14.8176 10.8654 14.3544 10.356C13.8912 9.84651 13.2759 9.50021 12.6001 9.36858ZM23.0139 12.7295C22.9754 12.8158 22.0417 14.8858 19.9332 16.772C19.8785 16.8233 19.8142 16.8631 19.7439 16.8891C19.6736 16.9151 19.5988 16.9268 19.5239 16.9236C19.449 16.9203 19.3755 16.902 19.3078 16.87C19.24 16.8379 19.1794 16.7926 19.1294 16.7367C19.0794 16.6808 19.0411 16.6156 19.0167 16.5447C18.9923 16.4738 18.9823 16.3988 18.9873 16.324C18.9924 16.2492 19.0123 16.1761 19.0459 16.1092C19.0795 16.0422 19.1262 15.9826 19.1832 15.9339C20.2731 14.9547 21.1834 13.7925 21.8729 12.4998C21.281 11.392 20.5271 10.3786 19.636 9.49327C17.5107 7.38296 14.942 6.31233 12.0001 6.31233C11.3817 6.3116 10.7643 6.36177 10.1542 6.46233C10.0807 6.47618 10.0052 6.47525 9.93211 6.45958C9.85901 6.44392 9.78977 6.41384 9.72843 6.3711C9.66708 6.32837 9.61488 6.27383 9.57486 6.21069C9.53484 6.14754 9.5078 6.07705 9.49534 6.00334C9.48288 5.92962 9.48524 5.85416 9.50228 5.78137C9.51931 5.70858 9.55069 5.63991 9.59458 5.57939C9.63846 5.51886 9.69397 5.46769 9.75786 5.42887C9.82175 5.39004 9.89273 5.36434 9.96667 5.35327C10.6387 5.24171 11.3189 5.18621 12.0001 5.18733C16.067 5.18733 18.8439 7.11296 20.4601 8.72733C22.202 10.4692 22.982 12.1961 23.0139 12.272C23.0459 12.344 23.0625 12.422 23.0625 12.5008C23.0625 12.5796 23.0459 12.6575 23.0139 12.7295Z" fill="#5E718D"/>
</svg>
