<svg width="256" height="48" viewBox="0 0 256 48" fill="none" xmlns="http://www.w3.org/2000/svg">
<rect x="8" y="8" width="32" height="32" rx="4" fill="white"/>
<path d="M23.486 21.236L26.7642 24.5142M21.2358 23.4858L24.5141 26.7641M27.75 21C27.75 24.7279 24.7279 27.75 21 27.75C17.2721 27.75 14.25 24.7279 14.25 21C14.25 17.2721 17.2721 14.25 21 14.25C24.7279 14.25 27.75 17.2721 27.75 21ZM33.75 27C33.75 30.7279 30.7279 33.75 27 33.75C23.2721 33.75 20.25 30.7279 20.25 27C20.25 23.2721 23.2721 20.25 27 20.25C30.7279 20.25 33.75 23.2721 33.75 27Z" stroke="#2D68FE" stroke-width="1.5" stroke-linecap="round" stroke-linejoin="round"/>
<path d="M70.96 34.048H66.496L61.216 25.528L60.088 24.712L60.448 23.992H61.792C62.88 23.992 63.736 23.72 64.36 23.176C65 22.616 65.32 21.856 65.32 20.896C65.32 19.632 64.968 18.584 64.264 17.752C63.56 16.904 62.536 16.48 61.192 16.48C60.296 16.48 59.472 16.744 58.72 17.272V32.224L61.24 33.088L60.76 34.048H53.464V33.304L55.72 31.528V16.936L53.224 16.12L53.704 15.16H56.488C57.944 15.16 59.376 15.112 60.784 15.016C61.808 14.952 62.568 14.92 63.064 14.92C64.136 14.92 65.088 15.136 65.92 15.568C66.768 16 67.416 16.584 67.864 17.32C68.328 18.056 68.56 18.864 68.56 19.744C68.56 20.544 68.312 21.312 67.816 22.048C67.32 22.768 66.664 23.4 65.848 23.944C65.048 24.472 64.2 24.872 63.304 25.144L64.864 25.672L68.584 31.672L71.44 33.088L70.96 34.048ZM95.5503 34.024H88.2543V33.28L90.5103 31.504V18.232L84.1023 34.024H82.7823L76.4223 18.064V31.792L78.9423 33.064L78.4622 34.024H72.8463V33.28L75.1023 31.504V17.44L72.6063 16.096L73.0863 15.136H78.2943L84.2943 30.208L90.2703 15.136H95.7903V15.88L93.5103 17.656V32.176L96.0303 33.064L95.5503 34.024ZM101.554 30.28C102.034 30.28 102.426 30.456 102.73 30.808C103.05 31.16 103.21 31.6 103.21 32.128C103.21 32.496 103.098 32.848 102.874 33.184C102.65 33.504 102.37 33.76 102.034 33.952C101.698 34.144 101.37 34.24 101.05 34.24C100.57 34.24 100.17 34.064 99.8504 33.712C99.5464 33.36 99.3944 32.92 99.3944 32.392C99.3944 32.024 99.5064 31.68 99.7304 31.36C99.9544 31.024 100.234 30.76 100.57 30.568C100.906 30.376 101.234 30.28 101.554 30.28ZM113.383 34H106.687V33.256L108.823 31.576V24.568L106.687 23.08V22.336L110.791 20.8H111.703V32.2L113.863 33.04L113.383 34ZM110.167 13.6C110.647 13.6 111.039 13.776 111.343 14.128C111.663 14.48 111.823 14.92 111.823 15.448C111.823 15.816 111.711 16.168 111.487 16.504C111.263 16.824 110.983 17.08 110.647 17.272C110.311 17.464 109.983 17.56 109.663 17.56C109.183 17.56 108.783 17.384 108.463 17.032C108.159 16.68 108.007 16.24 108.007 15.712C108.007 15.344 108.119 15 108.343 14.68C108.567 14.344 108.847 14.08 109.183 13.888C109.519 13.696 109.847 13.6 110.167 13.6ZM123.599 21.016C124.655 21.016 125.599 21.296 126.431 21.856C127.279 22.4 127.935 23.144 128.399 24.088C128.879 25.032 129.119 26.072 129.119 27.208C129.119 28.44 128.743 29.6 127.991 30.688C127.239 31.76 126.295 32.624 125.159 33.28C124.039 33.92 122.951 34.24 121.895 34.24C120.839 34.24 119.887 33.968 119.039 33.424C118.207 32.864 117.551 32.112 117.071 31.168C116.607 30.224 116.375 29.184 116.375 28.048C116.375 26.816 116.751 25.664 117.503 24.592C118.255 23.504 119.191 22.64 120.311 22C121.447 21.344 122.543 21.016 123.599 21.016ZM122.207 23.032C120.399 23.032 119.495 24.32 119.495 26.896C119.495 28.416 119.823 29.688 120.479 30.712C121.135 31.72 122.071 32.224 123.287 32.224C125.095 32.224 125.999 30.928 125.999 28.336C125.999 26.832 125.671 25.576 125.015 24.568C124.359 23.544 123.423 23.032 122.207 23.032Z" fill="white"/>
</svg>
