<svg width="443" height="381" viewBox="0 0 443 381" fill="none" xmlns="http://www.w3.org/2000/svg">
<path d="M344.497 41.0294C400.75 48.2091 354.2 96.2659 422.543 135.23C467.044 160.596 473.225 195.766 462.794 228.464C447.977 274.913 400.818 312.014 339.265 327.474C300.776 337.126 249.315 342.663 187.17 332.35C99.6414 317.839 25.4565 287.816 16.8544 201.659C16.8544 201.659 16.8544 155.465 66.9093 176.157C108.752 193.446 159.992 193.463 153.574 152.942C147.139 112.42 123.094 110.761 85.79 96.757C48.4858 82.7531 62.3542 31.3435 96.712 31.3435C131.07 31.3435 152.727 102.464 219.309 84.6835C285.891 66.9035 256.309 29.7856 344.497 41.0294Z" stroke="black" stroke-width="0.235148" stroke-miterlimit="10"/>
<path d="M418.699 92.5746C417.988 90.1531 417.023 87.8333 415.838 85.6489L421.544 76.6573L416.21 71.3233L410.876 65.9893L401.884 71.6958C399.7 70.4935 397.38 69.5453 394.959 68.8341L392.622 58.437H377.534L375.198 68.8341C372.776 69.5453 370.456 70.5105 368.272 71.6958L359.28 65.9893L353.946 71.3233L348.612 76.6573L354.319 85.6489C353.133 87.8333 352.168 90.1531 351.457 92.5746L341.06 94.9114V109.999L351.457 112.336C352.168 114.757 353.133 117.077 354.319 119.262L348.612 128.253L353.946 133.587L359.28 138.921L368.272 133.215C370.456 134.417 372.759 135.365 375.198 136.076L377.534 146.473H392.622L394.959 136.076C397.38 135.365 399.7 134.4 401.884 133.215L410.876 138.921L416.21 133.587L421.544 128.253L415.838 119.262C417.04 117.077 417.988 114.757 418.699 112.336L429.096 109.999V94.9114L418.699 92.5746ZM385.087 124.985C372.641 124.985 362.548 114.893 362.548 102.447C362.548 90.0007 372.641 79.9085 385.087 79.9085C397.533 79.9085 407.625 90.0007 407.625 102.447C407.625 114.893 397.533 124.985 385.087 124.985Z" fill="black"/>
<path d="M368.39 158.428C367.95 156.921 367.357 155.499 366.612 154.144L370.135 148.573L366.833 145.271L363.531 141.969L357.959 145.508C356.605 144.763 355.165 144.17 353.675 143.73L352.236 137.295H342.906L341.466 143.73C339.959 144.17 338.537 144.763 337.182 145.508L331.611 141.969L328.309 145.271L325.007 148.573L328.529 154.144C327.801 155.499 327.192 156.921 326.751 158.428L320.317 159.868V169.198L326.751 170.637C327.192 172.144 327.784 173.567 328.529 174.921L325.007 180.492L328.309 183.794L331.611 187.096L337.182 183.557C338.537 184.302 339.959 184.895 341.466 185.335L342.906 191.77H352.236L353.675 185.335C355.182 184.895 356.605 184.302 357.959 183.557L363.531 187.096L366.833 183.794L370.135 180.492L366.612 174.921C367.357 173.567 367.95 172.144 368.39 170.637L374.825 169.198V159.868L368.39 158.428ZM347.579 178.494C339.875 178.494 333.626 172.246 333.626 164.541C333.626 156.836 339.875 150.588 347.579 150.588C355.284 150.588 361.532 156.836 361.532 164.541C361.532 172.246 355.284 178.494 347.579 178.494Z" fill="black"/>
<path d="M308.904 349.656H92.0891C88.9734 349.656 86.4503 347.133 86.4503 344.018V60.7907C86.4503 57.6749 88.9734 55.1519 92.0891 55.1519H308.92C312.036 55.1519 314.559 57.6749 314.559 60.7907V344.001C314.542 347.133 312.019 349.656 308.904 349.656Z" fill="black"/>
<path d="M302.794 337.905V66.9036L98.1887 66.9036L98.1887 337.905H302.794Z" fill="white"/>
<path d="M241.39 43.1292H159.619C155.471 43.1292 152.101 46.4989 152.101 50.6476V66.9035H248.909V50.6476C248.909 46.4989 245.539 43.1292 241.39 43.1292Z" fill="#FF7F6E"/>
<path d="M140.908 156.904H121.638V176.174H140.908V156.904Z" fill="black"/>
<path d="M140.908 192.769H121.638V212.039H140.908V192.769Z" fill="black"/>
<path d="M140.908 228.634H121.638V247.904H140.908V228.634Z" fill="black"/>
<path d="M140.908 264.499H121.638V283.769H140.908V264.499Z" fill="black"/>
<path d="M151.237 166.539H279.355" stroke="black" stroke-width="0.704701" stroke-miterlimit="10"/>
<path d="M151.237 202.404H279.355" stroke="black" stroke-width="0.704701" stroke-miterlimit="10"/>
<path d="M151.237 238.269H279.355" stroke="black" stroke-width="0.704701" stroke-miterlimit="10"/>
<path d="M151.237 274.134H279.355" stroke="black" stroke-width="0.704701" stroke-miterlimit="10"/>
<path d="M123.433 161.121L130.833 167.505L147.478 148.641" stroke="#FF7F6E" stroke-width="0.93985" stroke-miterlimit="10"/>
<path d="M123.433 197.155L130.833 203.539L147.478 184.675" stroke="#FF7F6E" stroke-width="0.93985" stroke-miterlimit="10"/>
<path d="M123.433 233.189L130.833 239.573L147.478 220.726" stroke="#FF7F6E" stroke-width="0.93985" stroke-miterlimit="10"/>
<path d="M121.638 94.6233H279.355" stroke="black" stroke-width="0.704701" stroke-miterlimit="10"/>
<path d="M121.638 119.295H279.355" stroke="black" stroke-width="0.704701" stroke-miterlimit="10"/>
<path d="M116.321 164.88H54.4294C52.4651 164.88 50.8734 163.288 50.8734 161.324V80.6874C50.8734 78.7231 52.4651 77.1313 54.4294 77.1313H116.304C118.268 77.1313 119.86 78.7231 119.86 80.6874V161.307C119.877 163.288 118.285 164.88 116.321 164.88Z" fill="white" stroke="black" stroke-width="0.235148" stroke-miterlimit="10"/>
<path d="M110.902 83.0581H59.8481V121.006H110.902V83.0581Z" fill="black"/>
<path d="M59.8481 130.099H81.5059" stroke="black" stroke-width="0.704701" stroke-miterlimit="10"/>
<path d="M59.8481 140.564H102.063" stroke="black" stroke-width="0.704701" stroke-miterlimit="10"/>
<path d="M59.8481 151.045H110.902" stroke="black" stroke-width="0.704701" stroke-miterlimit="10"/>
<path d="M62.9469 99.1618C62.9469 99.1618 72.9376 95.301 74.9018 102.227C76.8492 109.119 80.693 108.39 82.0138 107.07C83.4193 105.664 83.5548 97.8579 88.4316 96.7911C92.1061 95.9952 96.0685 97.1806 96.5257 103.209C96.966 109.017 97.9142 111.997 99.997 111.506C102.08 111.015 102.063 102.074 104.23 101.024C106.567 99.9068 107.786 100.923 107.786 100.923V118.11H62.9469V99.1618Z" fill="white"/>
<path d="M219.225 349.504H345.175C347.342 349.504 349.103 347.743 349.103 345.575V257.268C349.103 255.101 347.342 253.34 345.175 253.34H219.225C217.057 253.34 215.296 255.101 215.296 257.268V345.575C215.296 347.743 217.057 349.504 219.225 349.504Z" fill="white" stroke="black" stroke-width="0.235148" stroke-miterlimit="10"/>
<path d="M243.321 305.969H230.689V326.001H243.321V305.969Z" fill="black"/>
<path d="M273.462 279.264H260.83V325.983H273.462V279.264Z" fill="black"/>
<path d="M303.587 264.058H290.954V325.984H303.587V264.058Z" fill="black"/>
<path d="M333.711 313.385H321.079V326.001H333.711V313.385Z" fill="black"/>
<path d="M333.711 332.875H321.079V334.095H333.711V332.875Z" fill="black"/>
<path d="M303.587 332.875H290.954V334.095H303.587V332.875Z" fill="black"/>
<path d="M273.462 332.875H260.83V334.095H273.462V332.875Z" fill="black"/>
<path d="M243.321 332.875H230.689V334.095H243.321V332.875Z" fill="black"/>
</svg>
