<svg width="547" height="412" viewBox="0 0 547 412" fill="none" xmlns="http://www.w3.org/2000/svg">
<mask id="mask0_239_20645" style="mask-type:alpha" maskUnits="userSpaceOnUse" x="41" y="80" width="466" height="300">
<path d="M319.955 108.038C416.018 153.178 443.452 123.51 486.658 183.656C529.863 243.8 500.424 356.2 409.639 374.628C318.853 393.057 302.577 347.682 179.368 367.366C56.1606 387.049 -6.33555 215.299 85.7929 143.684C177.92 72.0676 223.893 62.8971 319.955 108.038Z" fill="white"/>
</mask>
<g mask="url(#mask0_239_20645)">
<path d="M319.955 108.038C416.018 153.178 443.452 123.51 486.658 183.656C529.863 243.8 500.424 356.2 409.639 374.628C318.853 393.057 302.577 347.682 179.368 367.366C56.1606 387.049 -6.33555 215.299 85.7929 143.684C177.92 72.0676 223.893 62.8971 319.955 108.038Z" fill="#F2F5FF"/>
<path d="M221.333 33.9648C228.036 121.02 259.229 173.721 314.908 192.066C370.589 210.409 446.246 184.059 541.879 113.015" stroke="white" stroke-width="1.8051"/>
<path d="M254.281 33.9648C269.121 136.311 235.791 189.19 154.295 192.599C32.0489 197.712 120.367 104.875 162.072 141.882C203.777 178.89 200.383 259.023 135.31 313.945C91.9289 350.56 42.502 368.867 -12.9692 368.867M506.188 315.112C325.529 303.439 182.229 367.77 76.2847 508.104" stroke="white" stroke-width="1.8051"/>
<path d="M32.0488 313.768C150.552 345.533 226.949 410.312 261.24 508.104" stroke="white" stroke-width="1.8051"/>
<path d="M506.188 201.417C426.231 281.232 370.415 304.439 338.744 271.035C291.237 220.929 381.981 181.473 395.366 226.254C408.751 271.035 337.191 306.573 241.918 322.38C178.403 332.918 103.245 379.017 16.4443 460.677M115.41 33.9648C191.171 70.7615 288.952 87.3876 408.751 83.8417C528.55 80.2971 613.258 65.9096 662.874 40.6806" stroke="white" stroke-width="1.8051"/>
<path d="M506.188 253.278C430.5 327.069 398.021 416.53 408.751 521.662M388.741 120.093C420.933 120.093 447.03 83.4794 447.03 38.315C447.03 -6.84944 420.933 -43.4629 388.741 -43.4629C356.55 -43.4629 330.452 -6.84944 330.452 38.3136C330.452 83.4794 356.55 120.093 388.741 120.093Z" stroke="white" stroke-width="1.8051"/>
<path d="M32.0488 214.785C218.99 252.557 365.685 354.849 472.131 521.663" stroke="white" stroke-width="1.8051"/>
<path d="M100.719 33.9648C43.5823 45.6556 22.4544 70.0368 37.3424 107.108C59.6723 162.716 141.963 267.872 32.0488 286.109" stroke="white" stroke-width="1.8051"/>
</g>
<mask id="mask1_239_20645" style="mask-type:alpha" maskUnits="userSpaceOnUse" x="42" y="32" width="464" height="348">
<path d="M340.652 47.0551C436.466 92.1963 443.013 123.512 486.107 183.657C529.199 243.803 499.838 356.202 409.287 374.63C318.737 393.059 302.502 347.684 179.613 367.367C56.7238 387.051 -5.60958 215.303 86.2796 143.687C178.169 72.0708 244.837 1.91396 340.652 47.0551Z" fill="white"/>
</mask>
<g mask="url(#mask1_239_20645)">
<path fill-rule="evenodd" clip-rule="evenodd" d="M280.99 117.002L343.371 122.174C344.111 122.235 344.851 122.309 345.588 122.395L390.086 127.615C404.718 129.331 415.265 142.472 413.774 157.127C412.318 171.464 399.512 181.905 385.175 180.447C385.024 180.432 384.873 180.416 384.721 180.398L331.848 174.083L316.709 249.268H245.271L232.17 174.914L167.722 182.148C152.981 183.804 139.609 173.402 137.587 158.705C135.631 144.486 145.572 131.372 159.792 129.416C160.012 129.386 160.234 129.357 160.456 129.334L221.678 122.51C222.081 122.466 222.484 122.425 222.886 122.387L280.99 117.002Z" fill="white" stroke="#01133B" stroke-width="1.8051" stroke-linecap="round" stroke-linejoin="round"/>
<path fill-rule="evenodd" clip-rule="evenodd" d="M263.318 121.215V94.1387H287.221V121.215" fill="white"/>
<path d="M263.318 121.215V94.1387H287.221V121.215" stroke="#01133B" stroke-width="1.96373" stroke-linecap="round" stroke-linejoin="round"/>
<mask id="mask2_239_20645" style="mask-type:alpha" maskUnits="userSpaceOnUse" x="263" y="94" width="25" height="35">
<path d="M263.318 94.1387H287.221V116.448C287.221 119.618 285.962 122.658 283.721 124.899C281.479 127.141 278.439 128.4 275.269 128.4C272.1 128.4 269.06 127.141 266.818 124.899C264.577 122.658 263.318 119.618 263.318 116.448V94.1387Z" fill="white"/>
</mask>
<g mask="url(#mask2_239_20645)">
<path d="M282.784 117.955C297.692 117.955 309.78 106.764 309.78 92.9581C309.78 79.1531 297.692 67.9629 282.784 67.9629C267.874 67.9629 255.788 79.1531 255.788 92.9581C255.788 106.764 267.874 117.955 282.784 117.955Z" fill="#01133B"/>
</g>
<path d="M298.097 78.9584C298.097 66.1655 287.726 55.793 274.932 55.793C262.137 55.793 251.766 66.1641 251.766 78.9584V84.226C251.766 97.0204 262.137 107.391 274.932 107.391C287.726 107.391 298.097 97.0204 298.097 84.226V78.9584Z" fill="#01133B"/>
<path fill-rule="evenodd" clip-rule="evenodd" d="M289.435 61.2741C293.081 60.3606 296.216 62.2013 298.836 66.7974C301.456 71.3922 302.732 75.9734 302.663 80.5408C296.489 84.832 293.234 86.8245 292.898 86.5182C288.212 82.242 287.026 75.6711 285.548 70.5225C283.911 64.82 285.207 61.7377 289.435 61.2741Z" fill="#01133B"/>
<path fill-rule="evenodd" clip-rule="evenodd" d="M294.055 90.4132L297.206 90.0125C297.775 89.9401 298.353 89.9989 298.896 90.1846C299.439 90.3702 299.933 90.6777 300.338 91.0835C300.744 91.4893 301.052 91.9826 301.237 92.5256C301.423 93.0686 301.482 93.6469 301.409 94.2162C301.23 95.6278 300.62 96.95 299.663 98.003C298.706 99.0561 297.448 99.7889 296.06 100.102L294.055 100.553V90.4132Z" fill="white" stroke="#01133B" stroke-width="1.8051" stroke-linecap="round" stroke-linejoin="round"/>
<path d="M296.843 93.3828V96.5691M297.242 95.7732L298.836 94.1801" stroke="#01133B" stroke-width="1.8051" stroke-linecap="round" stroke-linejoin="round"/>
<path fill-rule="evenodd" clip-rule="evenodd" d="M255.809 90.413L252.658 90.0123C252.089 89.9401 251.51 89.9992 250.968 90.1849C250.425 90.3707 249.932 90.6782 249.526 91.0839C249.12 91.4896 248.813 91.9828 248.627 92.5257C248.441 93.0686 248.382 93.6467 248.454 94.216C248.634 95.6276 249.244 96.9496 250.201 98.0026C251.158 99.0556 252.416 99.7885 253.804 100.102L255.809 100.553V90.413Z" fill="white" stroke="#01133B" stroke-width="1.8051" stroke-linecap="round" stroke-linejoin="round"/>
<path d="M253.02 93.3828V96.5691M253.418 95.7732L251.825 94.1801" stroke="#01133B" stroke-width="1.8051" stroke-linecap="round" stroke-linejoin="round"/>
<path fill-rule="evenodd" clip-rule="evenodd" d="M294.222 81.3012V95.2156C294.222 105.782 285.656 114.347 275.09 114.347C264.524 114.347 255.958 105.782 255.958 95.2156V81.3012C255.958 70.7346 264.524 62.1699 275.09 62.1699C285.656 62.1699 294.222 70.7346 294.222 81.3012Z" fill="white" stroke="#01133B" stroke-width="1.8051" stroke-linecap="round" stroke-linejoin="round"/>
<path d="M275.544 108.825C279.135 108.825 282.047 107.341 282.047 105.51M273.984 96.7363L273.196 101.642L275.889 102.102" stroke="#01133B" stroke-width="1.8051" stroke-linecap="round" stroke-linejoin="round"/>
<path d="M264.364 95.267C266.445 95.267 268.132 94.2974 268.132 93.1023C268.132 91.9071 266.445 90.9375 264.364 90.9375C262.282 90.9375 260.596 91.9071 260.596 93.1023C260.596 94.2974 262.282 95.267 264.364 95.267Z" stroke="#01133B" stroke-width="1.15964" stroke-linecap="round" stroke-linejoin="round"/>
<path d="M264.364 95.267C265.614 95.267 266.625 94.2974 266.625 93.1023C266.625 91.9071 265.614 90.9375 264.364 90.9375C263.115 90.9375 262.103 91.9071 262.103 93.1023C262.103 94.2974 263.115 95.267 264.364 95.267Z" fill="#01133B"/>
<path d="M285.236 95.267C287.317 95.267 289.005 94.2974 289.005 93.1023C289.005 91.9071 287.317 90.9375 285.236 90.9375C283.155 90.9375 281.467 91.9071 281.467 93.1023C281.467 94.2974 283.155 95.267 285.236 95.267Z" stroke="#01133B" stroke-width="1.15964" stroke-linecap="round" stroke-linejoin="round"/>
<path d="M285.236 95.267C286.484 95.267 287.496 94.2974 287.496 93.1023C287.496 91.9071 286.484 90.9375 285.236 90.9375C283.987 90.9375 282.974 91.9071 282.974 93.1023C282.974 94.2974 283.987 95.267 285.236 95.267Z" fill="#01133B"/>
<path fill-rule="evenodd" clip-rule="evenodd" d="M266.509 69.7876C280.554 66.295 291.143 66.9432 298.28 71.7308C308.985 78.9143 299.523 98.6911 275.937 92.2269C260.212 87.9179 257.069 80.4377 266.509 69.7876Z" fill="#01133B"/>
<path fill-rule="evenodd" clip-rule="evenodd" d="M255.208 70.0407C256.941 62.3171 277.076 49.5364 287.658 53.4803C294.713 56.1114 292.666 65.2353 281.519 80.8522C262.824 78.7941 254.053 75.1907 255.208 70.0407Z" fill="#01133B"/>
<path fill-rule="evenodd" clip-rule="evenodd" d="M260.016 72.861C256.22 70.8522 253.489 72.2962 251.825 77.1892C250.161 82.0834 251.539 88.1086 255.958 95.2675C258.122 91.4426 260.016 86.7986 261.64 81.3381C263.263 75.8777 262.721 73.0525 260.016 72.861Z" fill="#01133B"/>
<path fill-rule="evenodd" clip-rule="evenodd" d="M261.072 63.5587C254.732 60.9618 250.519 62.8449 248.43 69.2065C246.968 73.6618 252.137 89.4004 254.653 89.4004C256.331 89.4004 256.717 90.9935 255.809 94.1812C258.638 88.2134 261.072 81.6795 263.11 74.5808C265.147 67.4821 264.468 63.8076 261.072 63.5587Z" fill="#01133B"/>
<path fill-rule="evenodd" clip-rule="evenodd" d="M294.36 117.998L292.106 242.864L329.104 246.663L334.155 220.685L362.063 210.069L382.937 196.293L409.678 185.905C423.508 180.535 431.051 165.591 427.159 151.275C425.162 143.928 420.918 137.388 415.021 132.573C409.124 127.757 401.869 124.905 394.271 124.417L294.36 117.998Z" fill="#EDEEF2" stroke="#01133B" stroke-width="1.8051" stroke-linecap="round" stroke-linejoin="round"/>
<path fill-rule="evenodd" clip-rule="evenodd" d="M313.304 120.42L304.966 150.391L323.639 169.185L292.106 253.323" fill="#EDEEF2"/>
<path d="M313.304 120.42L304.966 150.391L323.639 169.185L292.106 253.323" stroke="#01133B" stroke-width="1.8051" stroke-linecap="round" stroke-linejoin="round"/>
<path fill-rule="evenodd" clip-rule="evenodd" d="M255.556 117.998L257.809 242.864L220.81 246.663L215.759 220.685L187.852 210.069L166.979 196.293L138.221 179.463C132.783 176.28 128.514 171.432 126.045 165.636C123.575 159.839 123.037 153.401 124.509 147.275C125.984 141.139 129.385 135.636 134.214 131.573C139.043 127.509 145.046 125.099 151.344 124.695L255.556 117.998Z" fill="#EDEEF2" stroke="#01133B" stroke-width="1.8051" stroke-linecap="round" stroke-linejoin="round"/>
<path fill-rule="evenodd" clip-rule="evenodd" d="M236.612 120.42L244.949 150.391L226.275 169.185L257.809 253.323" fill="#EDEEF2"/>
<path d="M236.612 120.42L244.949 150.391L226.275 169.185L257.809 253.323M256.248 135.685L275.429 147.948L293.553 135.685" stroke="#01133B" stroke-width="1.8051" stroke-linecap="round" stroke-linejoin="round"/>
<path d="M421.554 184.996H125.718C124.429 184.996 123.152 185.25 121.961 185.743C120.77 186.236 119.687 186.959 118.776 187.871C117.864 188.783 117.141 189.865 116.647 191.056C116.154 192.247 115.9 193.524 115.9 194.813V372.895C115.9 374.184 116.154 375.461 116.647 376.652C117.141 377.843 117.864 378.925 118.776 379.837C119.687 380.749 120.77 381.472 121.961 381.965C123.152 382.458 124.429 382.712 125.718 382.712H421.554C424.157 382.712 426.654 381.678 428.496 379.837C430.337 377.995 431.371 375.498 431.371 372.895V194.813C431.371 192.21 430.337 189.713 428.496 187.872C426.654 186.03 424.157 184.996 421.554 184.996Z" fill="#436FFF"/>
<path fill-rule="evenodd" clip-rule="evenodd" d="M308.742 306.636L354.264 302.211L400.241 306.681C401.86 306.838 403.362 307.592 404.455 308.796C405.548 310.001 406.153 311.569 406.153 313.195V333.268H302.83V313.151C302.83 311.525 303.436 309.957 304.528 308.753C305.621 307.548 307.123 306.794 308.742 306.636Z" fill="#7E9CFF" stroke="#01133B" stroke-width="1.8051" stroke-linecap="round" stroke-linejoin="round"/>
<mask id="mask3_239_20645" style="mask-type:alpha" maskUnits="userSpaceOnUse" x="338" y="273" width="31" height="44">
<path d="M338.235 273.154H368.291V301.207C368.291 309.508 361.563 316.236 353.262 316.236C344.963 316.236 338.235 309.508 338.235 301.207V273.154Z" fill="white"/>
</mask>
<g mask="url(#mask3_239_20645)">
<path d="M338.235 273.154H368.291V301.207C368.291 309.508 361.563 316.236 353.262 316.236C344.963 316.236 338.235 309.508 338.235 301.207V273.154Z" fill="white" stroke="#01133B" stroke-width="1.8051" stroke-linecap="round" stroke-linejoin="round"/>
<path d="M365.181 289.935C383.928 289.935 399.127 275.863 399.127 258.504C399.127 241.145 383.928 227.072 365.181 227.072C346.433 227.072 331.234 241.145 331.234 258.504C331.234 275.863 346.433 289.935 365.181 289.935Z" fill="#01133B"/>
</g>
<path d="M380.696 236.191C380.696 221.093 368.457 208.854 353.358 208.854C338.259 208.854 326.02 221.093 326.02 236.191V246.398C326.02 261.495 338.259 273.736 353.358 273.736C368.457 273.736 380.696 261.495 380.696 246.398V236.191Z" fill="#01133B"/>
<path fill-rule="evenodd" clip-rule="evenodd" d="M372.786 216.873C376.63 213.373 380.185 214.489 383.455 220.22C386.724 225.952 385.962 234.836 381.169 246.874C378.709 247.668 377.27 247.874 376.85 247.491C371.005 242.158 369.526 233.962 367.682 227.541C365.641 220.428 367.342 216.873 372.786 216.873Z" fill="#01133B"/>
<path fill-rule="evenodd" clip-rule="evenodd" d="M377.519 248.445L380.313 248.016C381.187 247.882 382.08 247.95 382.924 248.215C383.767 248.481 384.539 248.936 385.179 249.546C385.819 250.156 386.31 250.905 386.616 251.735C386.921 252.565 387.032 253.454 386.94 254.334C386.708 256.531 385.819 258.607 384.388 260.29C382.957 261.973 381.051 263.184 378.919 263.766L377.519 264.148V248.445Z" fill="white" stroke="#01133B" stroke-width="1.8051" stroke-linecap="round" stroke-linejoin="round"/>
<path d="M380.8 253.166V258.056M380.8 256.24L383.085 254.395" stroke="#01133B" stroke-width="1.8051" stroke-linecap="round" stroke-linejoin="round"/>
<path fill-rule="evenodd" clip-rule="evenodd" d="M329.405 248.444L326.611 248.015C325.737 247.88 324.843 247.948 323.999 248.213C323.155 248.478 322.383 248.933 321.743 249.544C321.103 250.154 320.611 250.903 320.306 251.733C320.001 252.563 319.89 253.453 319.983 254.332C320.214 256.53 321.103 258.606 322.534 260.289C323.965 261.972 325.872 263.183 328.003 263.764L329.405 264.147V248.444Z" fill="white" stroke="#01133B" stroke-width="1.8051" stroke-linecap="round" stroke-linejoin="round"/>
<path d="M326.124 253.166V258.056M326.124 256.24L323.838 254.395" stroke="#01133B" stroke-width="1.8051" stroke-linecap="round" stroke-linejoin="round"/>
<path fill-rule="evenodd" clip-rule="evenodd" d="M377.519 240.931V258.427C377.519 271.714 366.748 282.484 353.462 282.484C340.175 282.484 329.405 271.714 329.405 258.427V240.931C329.405 227.645 340.175 216.873 353.462 216.873C366.748 216.873 377.519 227.645 377.519 240.931Z" fill="white" stroke="#01133B" stroke-width="1.8051" stroke-linecap="round" stroke-linejoin="round"/>
<path d="M354.033 269.526C356.202 269.526 358.281 268.664 359.815 267.131C361.348 265.598 362.209 263.518 362.21 261.35M352.071 253.324L351.08 259.492L354.466 260.073" stroke="#01133B" stroke-width="1.8051" stroke-linecap="round" stroke-linejoin="round"/>
<path d="M339.974 251.476C342.591 251.476 344.714 250.257 344.714 248.755C344.714 247.252 342.591 246.033 339.974 246.033C337.358 246.033 335.236 247.252 335.236 248.755C335.236 250.257 337.358 251.476 339.974 251.476Z" stroke="#01133B" stroke-width="1.45776" stroke-linecap="round" stroke-linejoin="round"/>
<path d="M339.974 251.476C341.545 251.476 342.817 250.257 342.817 248.755C342.817 247.252 341.545 246.033 339.974 246.033C338.404 246.033 337.131 247.252 337.131 248.755C337.131 250.257 338.404 251.476 339.974 251.476Z" fill="#01133B"/>
<path d="M366.219 251.476C368.837 251.476 370.958 250.257 370.958 248.755C370.958 247.252 368.837 246.033 366.219 246.033C363.602 246.033 361.481 247.252 361.481 248.755C361.481 250.257 363.602 251.476 366.219 251.476Z" stroke="#01133B" stroke-width="1.45776" stroke-linecap="round" stroke-linejoin="round"/>
<path d="M366.219 251.476C367.789 251.476 369.062 250.257 369.062 248.755C369.062 247.252 367.789 246.033 366.219 246.033C364.649 246.033 363.376 247.252 363.376 248.755C363.376 250.257 364.649 251.476 366.219 251.476Z" fill="#01133B"/>
<path fill-rule="evenodd" clip-rule="evenodd" d="M342.672 214.429C360.332 210.037 373.649 210.852 382.622 216.873C396.084 225.905 384.187 250.772 354.527 242.643C334.754 237.225 330.802 227.82 342.672 214.429Z" fill="#01133B"/>
<path fill-rule="evenodd" clip-rule="evenodd" d="M331.448 219.574C333.301 212.337 354.832 200.361 366.147 204.057C373.69 206.521 371.5 215.071 359.581 229.706C339.591 227.776 330.213 224.4 331.448 219.574Z" fill="#01133B"/>
<path fill-rule="evenodd" clip-rule="evenodd" d="M334.507 218.33C328.156 215.729 323.935 217.615 321.842 223.989C319.749 230.363 321.176 238.477 326.124 248.332C330.989 242.882 334.554 236.4 336.549 229.373C338.59 222.26 337.909 218.579 334.507 218.33Z" fill="#01133B"/>
<path d="M265.782 210.221H140.772V225.929H265.782V210.221ZM265.782 241.636H140.772V257.345H265.782V241.636ZM265.782 273.053H140.772V288.76H265.782V273.053ZM265.782 304.469H140.772V320.177H265.782V304.469ZM406.5 348.975H140.772V364.683H406.5V348.975Z" fill="#7E9CFF"/>
<path d="M114.698 296.643H433.745" stroke="#01133B" stroke-opacity="0.4" stroke-width="8.4238" stroke-linecap="round"/>
<path d="M114.698 296.643H433.745" stroke="white" stroke-width="6.017" stroke-linecap="round"/>
<path d="M274.904 184.986V382.702" stroke="#01133B" stroke-opacity="0.4" stroke-width="8.4238" stroke-linecap="round"/>
<path d="M274.904 184.986V382.702" stroke="white" stroke-width="6.017" stroke-linecap="round"/>
<path d="M274.128 288.467L281.449 300.927" stroke="#01133B" stroke-opacity="0.4" stroke-width="8.4238" stroke-linecap="round"/>
<path d="M274.128 288.467L281.449 300.927" stroke="white" stroke-width="6.017" stroke-linecap="round"/>
<path d="M268.238 292.393L275.558 304.853" stroke="#01133B" stroke-opacity="0.4" stroke-width="8.4238" stroke-linecap="round"/>
<path d="M268.238 292.393L275.558 304.853" stroke="white" stroke-width="6.017" stroke-linecap="round"/>
<path d="M275.353 183.837C267.821 159.377 259.078 147.746 249.124 148.945C234.194 150.746 242.305 156.9 227.21 159.222C217.147 160.769 233.194 168.975 275.353 183.837Z" stroke="#01133B" stroke-opacity="0.4" stroke-width="8.4238" stroke-linecap="round" stroke-linejoin="round"/>
<path d="M275.353 183.837C267.821 159.377 259.078 147.746 249.124 148.945C234.194 150.746 242.305 156.9 227.21 159.222C217.147 160.769 233.194 168.975 275.353 183.837Z" stroke="white" stroke-width="6.017" stroke-linecap="round" stroke-linejoin="round"/>
<path d="M275.353 183.837C282.884 159.377 291.628 147.746 301.582 148.945C316.512 150.746 308.4 156.9 323.494 159.222C333.558 160.769 317.51 168.975 275.353 183.837Z" stroke="#01133B" stroke-opacity="0.4" stroke-width="8.4238" stroke-linecap="round" stroke-linejoin="round"/>
<path d="M275.353 183.837C282.884 159.377 291.628 147.746 301.582 148.945C316.512 150.746 308.4 156.9 323.494 159.222C333.558 160.769 317.51 168.975 275.353 183.837Z" stroke="white" stroke-width="6.017" stroke-linecap="round" stroke-linejoin="round"/>
<path fill-rule="evenodd" clip-rule="evenodd" d="M274.724 176.012C278.999 176.012 283.273 180.287 283.273 184.563C283.273 188.837 278.999 189.454 274.724 189.454C270.448 189.454 266.173 188.837 266.173 184.563C266.173 180.287 270.448 176.012 274.724 176.012Z" fill="white" stroke="#01133B" stroke-opacity="0.4" stroke-width="1.2034"/>
<mask id="mask4_239_20645" style="mask-type:alpha" maskUnits="userSpaceOnUse" x="323" y="133" width="106" height="80">
<path d="M358.661 142.193L323.038 158.8L349.069 212.389L381.606 197.361L384.85 204.046L409.65 190.954C425.92 182.366 432.707 162.603 425.15 145.818L413.1 133.955L358.661 142.193Z" fill="white"/>
</mask>
<g mask="url(#mask4_239_20645)">
<path d="M358.661 142.192L323.038 158.799L349.068 212.387L381.606 197.357L384.85 204.044L409.65 190.952C425.92 182.363 432.707 162.601 425.152 145.815L413.101 133.953L358.661 142.192Z" fill="white"/>
<path fill-rule="evenodd" clip-rule="evenodd" d="M357.521 141.525L384.854 204.178L444.298 170.547L417.749 111.996L357.521 141.525Z" fill="#EDEEF2"/>
</g>
<path d="M363.23 147.544L330.309 165.387L353.4 214.368L385.449 198.826L384.847 204.043L408.917 191.62C426.347 182.623 433.178 161.196 424.175 143.76C424.012 143.443 423.844 143.128 423.671 142.816" stroke="#01133B" stroke-width="1.8051" stroke-linecap="round" stroke-linejoin="round"/>
<path fill-rule="evenodd" clip-rule="evenodd" d="M335.154 159.62L327.637 160.959L320.669 163.206C319.265 163.659 317.738 163.536 316.425 162.864C315.111 162.192 314.118 161.025 313.663 159.622L313.659 159.609C313.193 158.156 313.285 156.582 313.918 155.194C314.551 153.805 315.679 152.703 317.081 152.102L326.117 148.222C328.503 147.197 331.097 146.747 333.689 146.909L357.218 148.377" fill="white"/>
<path d="M335.154 159.62L327.637 160.959L320.669 163.206C319.265 163.659 317.738 163.536 316.425 162.864C315.111 162.192 314.118 161.025 313.663 159.622L313.659 159.609C313.193 158.156 313.285 156.582 313.918 155.194C314.551 153.805 315.679 152.703 317.081 152.102L326.117 148.222C328.503 147.197 331.097 146.747 333.689 146.909L357.218 148.377" stroke="#01133B" stroke-width="1.8051" stroke-linecap="round" stroke-linejoin="round"/>
<path fill-rule="evenodd" clip-rule="evenodd" d="M383.146 201.01L349.83 217.723C348.107 218.587 346.112 218.734 344.281 218.132C342.45 217.53 340.931 216.229 340.056 214.511C339.198 212.828 339.044 210.874 339.627 209.077C340.21 207.281 341.483 205.79 343.166 204.932L343.281 204.874L350.773 201.227" fill="white"/>
<path d="M383.146 201.01L349.83 217.723C348.107 218.587 346.112 218.734 344.281 218.132C342.45 217.53 340.931 216.229 340.056 214.511C339.198 212.828 339.044 210.874 339.627 209.077C340.21 207.281 341.483 205.79 343.166 204.932L343.281 204.874L350.773 201.227" stroke="#01133B" stroke-width="1.8051" stroke-linecap="round" stroke-linejoin="round"/>
<path fill-rule="evenodd" clip-rule="evenodd" d="M350.765 201.311L343.103 205.04C341.409 205.864 339.458 205.986 337.674 205.38C335.89 204.773 334.418 203.487 333.577 201.802C333.163 200.973 332.918 200.07 332.855 199.145C332.792 198.221 332.913 197.293 333.211 196.416C333.509 195.539 333.977 194.729 334.59 194.034C335.203 193.339 335.947 192.772 336.78 192.366L344.442 188.637" fill="white"/>
<path d="M350.765 201.311L343.103 205.04C341.409 205.864 339.458 205.986 337.674 205.38C335.89 204.773 334.418 203.487 333.577 201.802C333.163 200.973 332.918 200.07 332.855 199.145C332.792 198.221 332.913 197.293 333.211 196.416C333.509 195.539 333.977 194.729 334.59 194.034C335.203 193.339 335.947 192.772 336.78 192.366L344.442 188.637" stroke="#01133B" stroke-width="1.8051" stroke-linecap="round" stroke-linejoin="round"/>
<path fill-rule="evenodd" clip-rule="evenodd" d="M344.444 188.64L336.782 192.37C335.088 193.194 333.137 193.316 331.354 192.709C329.57 192.103 328.098 190.817 327.258 189.131C326.417 187.448 326.278 185.501 326.869 183.716C327.461 181.931 328.736 180.453 330.415 179.606L338.125 175.717" fill="white"/>
<path d="M344.444 188.64L336.782 192.37C335.088 193.194 333.137 193.316 331.354 192.709C329.57 192.103 328.098 190.817 327.258 189.131C326.417 187.448 326.278 185.501 326.869 183.716C327.461 181.931 328.736 180.453 330.415 179.606L338.125 175.717" stroke="#01133B" stroke-width="1.8051" stroke-linecap="round" stroke-linejoin="round"/>
<path fill-rule="evenodd" clip-rule="evenodd" d="M338.131 175.72L330.378 179.437C328.131 180.514 325.709 181.177 323.226 181.394L314.015 182.197C312.249 182.351 310.494 181.797 309.136 180.657C307.777 179.518 306.928 177.886 306.773 176.12C306.612 174.293 307.135 172.472 308.239 171.008C309.342 169.544 310.95 168.541 312.75 168.192L322.965 166.219L360.208 146.795" fill="white"/>
<path d="M338.131 175.72L330.378 179.437C328.131 180.514 325.709 181.177 323.226 181.394L314.015 182.197C312.249 182.351 310.494 181.797 309.136 180.657C307.777 179.518 306.928 177.886 306.773 176.12C306.612 174.293 307.135 172.472 308.239 171.008C309.342 169.544 310.95 168.541 312.75 168.192L322.965 166.219L360.208 146.795" stroke="#01133B" stroke-width="1.8051" stroke-linecap="round" stroke-linejoin="round"/>
<path d="M369.925 132.758L356.416 138.105L382.153 198.823" stroke="#01133B" stroke-width="1.8051" stroke-linecap="round" stroke-linejoin="round"/>
<path fill-rule="evenodd" clip-rule="evenodd" d="M347.807 140.803L364.277 132.096L405.925 201.405L380.081 211.759L347.807 140.803Z" fill="#EDEEF2" stroke="#01133B" stroke-width="1.8051" stroke-linecap="round" stroke-linejoin="round"/>
<mask id="mask5_239_20645" style="mask-type:alpha" maskUnits="userSpaceOnUse" x="122" y="132" width="106" height="82">
<path d="M191.81 140.392L227.433 156.998L201.058 213.86L168.52 198.83L165.621 202.244L142.02 189.715C125.594 180.994 118.391 161.284 125.32 144.015L137.371 132.152L191.81 140.392Z" fill="white"/>
</mask>
<g mask="url(#mask5_239_20645)">
<path d="M191.81 140.392L227.433 156.998L201.058 213.86L168.521 198.83L165.622 202.244L142.02 189.715C125.594 180.994 118.391 161.284 125.32 144.014L137.371 132.152L191.81 140.392Z" fill="white"/>
<path fill-rule="evenodd" clip-rule="evenodd" d="M192.952 139.722L165.617 202.375L106.174 168.744L132.723 110.193L192.952 139.722Z" fill="#EDEEF2"/>
</g>
<path d="M192.131 140.826L225.053 158.671L200.801 212.564L168.752 197.022L165.623 202.241L141.554 189.815C124.125 180.819 117.294 159.393 126.295 141.957C126.459 141.64 126.628 141.325 126.801 141.014" stroke="#01133B" stroke-width="1.8051" stroke-linecap="round" stroke-linejoin="round"/>
<path fill-rule="evenodd" clip-rule="evenodd" d="M216.52 156.612L224.037 157.951L231.005 160.198C232.409 160.651 233.936 160.528 235.25 159.856C236.563 159.184 237.556 158.018 238.011 156.614L238.015 156.601C238.481 155.149 238.389 153.574 237.757 152.186C237.124 150.797 235.997 149.694 234.595 149.092L225.558 145.213C223.171 144.189 220.577 143.74 217.985 143.901L194.456 145.369" fill="white"/>
<path d="M216.52 156.612L224.037 157.951L231.005 160.198C232.409 160.651 233.936 160.528 235.25 159.856C236.563 159.184 237.556 158.018 238.011 156.614L238.015 156.601C238.481 155.149 238.389 153.574 237.757 152.186C237.124 150.797 235.997 149.694 234.595 149.092L225.558 145.213C223.171 144.189 220.577 143.74 217.985 143.901L194.456 145.369" stroke="#01133B" stroke-width="1.8051" stroke-linecap="round" stroke-linejoin="round"/>
<path fill-rule="evenodd" clip-rule="evenodd" d="M168.529 198L201.846 214.712C203.569 215.576 205.563 215.723 207.394 215.122C209.225 214.52 210.744 213.219 211.619 211.501C212.049 210.658 212.306 209.738 212.376 208.795C212.446 207.851 212.328 206.903 212.028 206.006C211.727 205.109 211.251 204.281 210.627 203.57C210.003 202.859 209.244 202.279 208.393 201.865L200.901 198.217" fill="white"/>
<path d="M168.529 198L201.846 214.712C203.569 215.576 205.563 215.723 207.394 215.122C209.225 214.52 210.744 213.219 211.619 211.501C212.049 210.658 212.306 209.738 212.376 208.795C212.446 207.851 212.328 206.903 212.028 206.006C211.727 205.109 211.251 204.281 210.627 203.57C210.003 202.859 209.244 202.279 208.393 201.865L200.901 198.217" stroke="#01133B" stroke-width="1.8051" stroke-linecap="round" stroke-linejoin="round"/>
<path fill-rule="evenodd" clip-rule="evenodd" d="M200.91 198.303L208.571 202.032C210.265 202.856 212.216 202.979 214 202.372C215.784 201.766 217.256 200.48 218.097 198.794C218.508 197.97 218.753 197.073 218.818 196.154C218.883 195.236 218.766 194.313 218.474 193.44C218.182 192.567 217.721 191.759 217.117 191.064C216.513 190.369 215.779 189.799 214.955 189.388L214.894 189.358L207.232 185.629" fill="white"/>
<path d="M200.91 198.303L208.571 202.032C210.265 202.856 212.216 202.979 214 202.372C215.784 201.766 217.256 200.48 218.097 198.794C218.508 197.97 218.753 197.073 218.818 196.154C218.883 195.236 218.766 194.313 218.474 193.44C218.182 192.567 217.721 191.759 217.117 191.064C216.513 190.369 215.779 189.799 214.955 189.388L214.894 189.358L207.232 185.629" stroke="#01133B" stroke-width="1.8051" stroke-linecap="round" stroke-linejoin="round"/>
<path fill-rule="evenodd" clip-rule="evenodd" d="M207.229 185.632L214.892 189.361C216.586 190.185 218.537 190.308 220.321 189.701C222.104 189.095 223.577 187.809 224.418 186.123C225.258 184.44 225.397 182.493 224.805 180.708C224.213 178.923 222.938 177.445 221.259 176.598L213.55 172.709" fill="white"/>
<path d="M207.229 185.632L214.892 189.361C216.586 190.185 218.537 190.308 220.321 189.701C222.104 189.095 223.577 187.809 224.418 186.123C225.258 184.44 225.397 182.493 224.805 180.708C224.213 178.923 222.938 177.445 221.259 176.598L213.55 172.709" stroke="#01133B" stroke-width="1.8051" stroke-linecap="round" stroke-linejoin="round"/>
<path fill-rule="evenodd" clip-rule="evenodd" d="M213.545 172.711L221.296 176.427C223.543 177.504 225.965 178.166 228.448 178.383L237.659 179.187C239.425 179.341 241.181 178.787 242.539 177.647C243.897 176.507 244.747 174.875 244.901 173.108C245.062 171.282 244.54 169.461 243.436 167.997C242.332 166.533 240.724 165.53 238.924 165.182L228.709 163.209L191.466 143.785" fill="white"/>
<path d="M213.545 172.712L221.296 176.429C223.543 177.505 225.965 178.168 228.448 178.384L237.659 179.188C239.426 179.342 241.181 178.788 242.539 177.648C243.897 176.509 244.747 174.876 244.901 173.11C245.062 171.283 244.54 169.462 243.436 167.998C242.332 166.534 240.725 165.531 238.924 165.184L228.709 163.21L191.466 143.786M180.547 130.955L194.056 136.302L168.319 197.019" stroke="#01133B" stroke-width="1.8051" stroke-linecap="round" stroke-linejoin="round"/>
<path fill-rule="evenodd" clip-rule="evenodd" d="M202.062 138.996L185.593 130.289L143.946 199.598L169.787 209.953L202.062 138.996Z" fill="#EDEEF2" stroke="#01133B" stroke-width="1.8051" stroke-linecap="round" stroke-linejoin="round"/>
<path fill-rule="evenodd" clip-rule="evenodd" d="M200.804 145.75L178.141 202.373L174.615 201.519L198.416 145.75H200.804ZM352.779 147.948L350.88 147.949L373.883 205.962L377.513 204.178L352.779 147.948Z" fill="#01133B"/>
</g>
</svg>
