<svg width="18" height="20" viewBox="0 0 18 20" fill="none" xmlns="http://www.w3.org/2000/svg">
<path d="M10.4417 17.4993C10.2952 17.7519 10.0849 17.9616 9.83185 18.1073C9.57884 18.253 9.29198 18.3297 9 18.3297C8.70802 18.3297 8.42116 18.253 8.16814 18.1073C7.91513 17.9616 7.70484 17.7519 7.55833 17.4993M14 6.66602C14 5.33993 13.4732 4.06816 12.5355 3.13048C11.5979 2.1928 10.3261 1.66602 9 1.66602C7.67392 1.66602 6.40215 2.1928 5.46447 3.13048C4.52678 4.06816 4 5.33993 4 6.66602C4 12.4993 1.5 14.166 1.5 14.166H16.5C16.5 14.166 14 12.4993 14 6.66602Z" stroke="#667085" stroke-width="1.66667" stroke-linecap="round" stroke-linejoin="round"/>
</svg>
