<svg width="16" height="16" viewBox="0 0 16 16" fill="none" xmlns="http://www.w3.org/2000/svg">
<g id="icon / dots-v">
<g id="icon">
<path d="M9 2.66602C9 3.2183 8.55228 3.66602 8 3.66602C7.44772 3.66602 7 3.2183 7 2.66602C7 2.11373 7.44772 1.66602 8 1.66602C8.55228 1.66602 9 2.11373 9 2.66602Z" fill="black"/>
<path d="M9 7.99935C9 8.55163 8.55228 8.99935 8 8.99935C7.44772 8.99935 7 8.55163 7 7.99935C7 7.44706 7.44772 6.99935 8 6.99935C8.55228 6.99935 9 7.44706 9 7.99935Z" fill="black"/>
<path d="M8 14.3327C8.55228 14.3327 9 13.885 9 13.3327C9 12.7804 8.55228 12.3327 8 12.3327C7.44772 12.3327 7 12.7804 7 13.3327C7 13.885 7.44772 14.3327 8 14.3327Z" fill="black"/>
</g>
</g>
</svg>
