<svg width="24" height="25" viewBox="0 0 24 25" fill="none" xmlns="http://www.w3.org/2000/svg">
<g id="Eye">
<path id="Vector" d="M23.0137 12.2722C22.9819 12.1991 22.2019 10.4694 20.46 8.7275C18.8437 7.11313 16.0669 5.1875 12 5.1875C7.93311 5.1875 5.15623 7.11313 3.53998 8.7275C1.79811 10.4694 1.01811 12.1962 0.986235 12.2722C0.954184 12.3442 0.937622 12.4221 0.937622 12.5009C0.937622 12.5798 0.954184 12.6577 0.986235 12.7297C1.01811 12.8019 1.79811 14.5316 3.53998 16.2734C5.15623 17.8878 7.93311 19.8125 12 19.8125C16.0669 19.8125 18.8437 17.8878 20.46 16.2734C22.2019 14.5316 22.9819 12.8047 23.0137 12.7297C23.0458 12.6577 23.0623 12.5798 23.0623 12.5009C23.0623 12.4221 23.0458 12.3442 23.0137 12.2722ZM12 18.6875C9.05811 18.6875 6.48936 17.6169 4.36405 15.5066C3.47312 14.6211 2.7192 13.6078 2.12717 12.5C2.71903 11.3924 3.47297 10.3793 4.36405 9.49438C6.48936 7.38313 9.05811 6.3125 12 6.3125C14.9419 6.3125 17.5106 7.38313 19.6359 9.49438C20.527 10.3793 21.2809 11.3924 21.8728 12.5C21.2756 13.6447 18.2812 18.6875 12 18.6875ZM12 8.1875C11.1471 8.1875 10.3133 8.44042 9.60409 8.91429C8.8949 9.38815 8.34216 10.0617 8.01575 10.8497C7.68935 11.6377 7.60395 12.5048 7.77035 13.3413C7.93675 14.1779 8.34747 14.9463 8.95059 15.5494C9.5537 16.1525 10.3221 16.5632 11.1587 16.7296C11.9952 16.896 12.8623 16.8106 13.6503 16.4842C14.4383 16.1578 15.1118 15.6051 15.5857 14.8959C16.0596 14.1867 16.3125 13.3529 16.3125 12.5C16.311 11.3567 15.8562 10.2607 15.0477 9.45225C14.2393 8.64382 13.1433 8.18899 12 8.1875ZM12 15.6875C11.3696 15.6875 10.7533 15.5006 10.2291 15.1503C9.70492 14.8001 9.29637 14.3022 9.05512 13.7198C8.81387 13.1374 8.75074 12.4965 8.87373 11.8781C8.99672 11.2598 9.3003 10.6919 9.74608 10.2461C10.1919 9.80032 10.7598 9.49674 11.3781 9.37375C11.9964 9.25076 12.6373 9.31388 13.2198 9.55513C13.8022 9.79639 14.3 10.2049 14.6503 10.7291C15.0005 11.2533 15.1875 11.8696 15.1875 12.5C15.1875 13.3454 14.8517 14.1561 14.2539 14.7539C13.6561 15.3517 12.8454 15.6875 12 15.6875Z" fill="#5E718D"/>
</g>
</svg>
