<svg width="18" height="19" viewBox="0 0 18 19" fill="none" xmlns="http://www.w3.org/2000/svg">
<g id="Icon">
<path id="Vector" d="M11.2495 17.5001V13C11.2495 12.8011 11.1704 12.6104 11.0298 12.4697C10.8891 12.3291 10.6984 12.25 10.4995 12.25H7.49945C7.30054 12.25 7.10977 12.3291 6.96912 12.4697C6.82847 12.6104 6.74945 12.8011 6.74945 13V17.5001C6.74945 17.699 6.67045 17.8898 6.52981 18.0304C6.38918 18.1711 6.19844 18.2501 5.99954 18.2501L1.50009 18.2507C1.40159 18.2507 1.30406 18.2313 1.21305 18.1937C1.12205 18.156 1.03936 18.1007 0.969703 18.0311C0.900049 17.9614 0.844796 17.8788 0.807099 17.7878C0.769402 17.6968 0.75 17.5992 0.75 17.5007V8.83256C0.75 8.72807 0.771834 8.62473 0.814101 8.52917C0.856369 8.43361 0.918138 8.34794 0.995448 8.27765L8.49493 1.45876C8.63299 1.33324 8.81287 1.26368 8.99946 1.26367C9.18605 1.26367 9.36594 1.33321 9.504 1.45873L17.0045 8.27764C17.0818 8.34794 17.1436 8.43361 17.1859 8.52918C17.2282 8.62474 17.25 8.72809 17.25 8.83259V17.5007C17.25 17.5992 17.2306 17.6968 17.1929 17.7878C17.1552 17.8788 17.1 17.9614 17.0303 18.0311C16.9606 18.1007 16.878 18.156 16.7869 18.1937C16.6959 18.2313 16.5984 18.2507 16.4999 18.2507L11.9994 18.2501C11.8005 18.2501 11.6097 18.1711 11.4691 18.0304C11.3285 17.8898 11.2494 17.699 11.2495 17.5001V17.5001Z" stroke="#3D4A5C" stroke-width="1.5" stroke-linecap="round" stroke-linejoin="round"/>
</g>
</svg>
