<svg width="25" height="25" viewBox="0 0 25 25" fill="none" xmlns="http://www.w3.org/2000/svg">
<g id="ion:camera-sharp">
<path id="Vector" d="M12.5 16.25C14.1569 16.25 15.5 14.9069 15.5 13.25C15.5 11.5931 14.1569 10.25 12.5 10.25C10.8431 10.25 9.5 11.5931 9.5 13.25C9.5 14.9069 10.8431 16.25 12.5 16.25Z" fill="#334054"/>
<path id="Vector_2" d="M21.875 7.25H17.9844C17.8438 7.25 17.6694 7.15906 17.5334 7.01562L16.2547 5.00937C15.7344 4.25 15.5 4.25 14.6562 4.25H10.3438C9.5 4.25 9.21875 4.25 8.74672 5.00984L7.46656 7.01562C7.3625 7.12906 7.21625 7.25 7.0625 7.25V6.5C7.0625 6.40054 7.02299 6.30516 6.95267 6.23484C6.88234 6.16451 6.78696 6.125 6.6875 6.125H4.8125C4.71304 6.125 4.61766 6.16451 4.54734 6.23484C4.47701 6.30516 4.4375 6.40054 4.4375 6.5V7.25H3.125C2.82663 7.25 2.54048 7.36853 2.3295 7.5795C2.11853 7.79048 2 8.07663 2 8.375V19.625C2 19.9234 2.11853 20.2095 2.3295 20.4205C2.54048 20.6315 2.82663 20.75 3.125 20.75H21.875C22.1734 20.75 22.4595 20.6315 22.6705 20.4205C22.8815 20.2095 23 19.9234 23 19.625V8.375C23 8.07663 22.8815 7.79048 22.6705 7.5795C22.4595 7.36853 22.1734 7.25 21.875 7.25ZM12.7114 17.7453C11.8044 17.7879 10.9057 17.5551 10.1334 17.0776C9.36117 16.6 8.75144 15.8999 8.38437 15.0694C8.01729 14.2389 7.91005 13.3168 8.07674 12.4242C8.24342 11.5316 8.67623 10.7103 9.31829 10.0683C9.96035 9.42623 10.7816 8.99342 11.6742 8.82674C12.5668 8.66005 13.4889 8.76729 14.3194 9.13437C15.1499 9.50144 15.85 10.1112 16.3276 10.8834C16.8051 11.6557 17.0379 12.5544 16.9953 13.4614C16.9416 14.5802 16.473 15.6389 15.681 16.431C14.8889 17.223 13.8302 17.6916 12.7114 17.7453Z" fill="#334054"/>
</g>
</svg>
