<svg width="19" height="19" viewBox="0 0 19 19" fill="none" xmlns="http://www.w3.org/2000/svg">
<g id="Icon">
<path id="Vector" d="M6.37505 11.5H12M6.37505 8.5H12M9.37502 18.25H1.46875C1.27813 18.25 1.09531 18.1743 0.960517 18.0395C0.825725 17.9047 0.75 17.7219 0.75 17.5312V9.62498C0.75 8.49233 0.973092 7.37078 1.40654 6.32434C1.83998 5.27791 2.4753 4.3271 3.2762 3.5262C4.0771 2.72529 5.02791 2.08998 6.07435 1.65654C7.12078 1.22309 8.24233 1 9.37498 1C10.5076 1 11.6292 1.22309 12.6756 1.65654C13.7221 2.08999 14.6729 2.7253 15.4738 3.5262C16.2747 4.32711 16.91 5.27792 17.3435 6.32436C17.7769 7.37079 18 8.49235 18 9.625C18 11.9125 17.0913 14.1063 15.4738 15.7238C13.8563 17.3413 11.6625 18.25 9.37502 18.25Z" stroke="#3D4A5C" stroke-width="1.5" stroke-linecap="round" stroke-linejoin="round"/>
</g>
</svg>
