<svg width="177" height="178" viewBox="0 0 177 178" fill="none" xmlns="http://www.w3.org/2000/svg">
<g filter="url(#filter0_d_1009_60552)">
<g clip-path="url(#clip0_1009_60552)">
<path d="M118.875 125H114.984C114.844 125 114.669 124.909 114.533 124.766L113.255 122.759C112.734 122 112.5 122 111.656 122H107.344C106.5 122 106.219 122 105.747 122.76L104.467 124.766C104.362 124.879 104.216 125 104.062 125V124.25C104.062 124.151 104.023 124.055 103.953 123.985C103.882 123.915 103.787 123.875 103.688 123.875H101.812C101.713 123.875 101.618 123.915 101.547 123.985C101.477 124.055 101.438 124.151 101.438 124.25V125H100.125C99.8266 125 99.5405 125.119 99.3295 125.33C99.1185 125.54 99 125.827 99 126.125V137.375C99 137.673 99.1185 137.96 99.3295 138.17C99.5405 138.381 99.8266 138.5 100.125 138.5H118.875C119.173 138.5 119.46 138.381 119.67 138.17C119.881 137.96 120 137.673 120 137.375V126.125C120 125.827 119.881 125.54 119.67 125.33C119.46 125.119 119.173 125 118.875 125ZM109.711 135.495C108.804 135.538 107.906 135.305 107.133 134.828C106.361 134.35 105.751 133.65 105.384 132.819C105.017 131.989 104.91 131.067 105.077 130.174C105.243 129.282 105.676 128.46 106.318 127.818C106.96 127.176 107.782 126.743 108.674 126.577C109.567 126.41 110.489 126.517 111.319 126.884C112.15 127.251 112.85 127.861 113.328 128.633C113.805 129.406 114.038 130.304 113.995 131.211C113.942 132.33 113.473 133.389 112.681 134.181C111.889 134.973 110.83 135.442 109.711 135.495Z" fill="white"/>
<path d="M109.5 134.078C111.226 134.078 112.625 132.707 112.625 131.016C112.625 129.324 111.226 127.953 109.5 127.953C107.774 127.953 106.375 129.324 106.375 131.016C106.375 132.707 107.774 134.078 109.5 134.078Z" fill="white"/>
</g>
<rect x="18.5889" y="10.5889" width="139.822" height="139.822" rx="69.9111" stroke="#B3DBD1" stroke-width="3.17778" shape-rendering="crispEdges"/>
</g>
<defs>
<filter id="filter0_d_1009_60552" x="0.0518532" y="0.525927" width="176.896" height="176.896" filterUnits="userSpaceOnUse" color-interpolation-filters="sRGB">
<feFlood flood-opacity="0" result="BackgroundImageFix"/>
<feColorMatrix in="SourceAlpha" type="matrix" values="0 0 0 0 0 0 0 0 0 0 0 0 0 0 0 0 0 0 127 0" result="hardAlpha"/>
<feOffset dy="8.47407"/>
<feGaussianBlur stdDeviation="8.47407"/>
<feComposite in2="hardAlpha" operator="out"/>
<feColorMatrix type="matrix" values="0 0 0 0 0.701961 0 0 0 0 0.858824 0 0 0 0 0.819608 0 0 0 1 0"/>
<feBlend mode="normal" in2="BackgroundImageFix" result="effect1_dropShadow_1009_60552"/>
<feBlend mode="normal" in="SourceGraphic" in2="effect1_dropShadow_1009_60552" result="shape"/>
</filter>
<clipPath id="clip0_1009_60552">
<rect x="17" y="9" width="143" height="143" rx="71.5" fill="white"/>
</clipPath>
</defs>
</svg>
