<svg width="18" height="21" viewBox="0 0 18 21" fill="none" xmlns="http://www.w3.org/2000/svg">
<g id="Icon">
<path id="Vector" d="M6 14H12M6 11H12M13.5 1.25V4.25M9 1.25V4.25M4.5 1.25V4.25M2.25 2.75H15.75C15.9489 2.75 16.1397 2.82902 16.2803 2.96967C16.421 3.11032 16.5 3.30109 16.5 3.5V17.75C16.5 18.3467 16.2629 18.919 15.841 19.341C15.419 19.7629 14.8467 20 14.25 20H3.75C3.15326 20 2.58097 19.7629 2.15901 19.341C1.73705 18.919 1.5 18.3467 1.5 17.75V3.5C1.5 3.30109 1.57902 3.11032 1.71967 2.96967C1.86032 2.82902 2.05109 2.75 2.25 2.75Z" stroke="#3D4A5C" stroke-width="1.5" stroke-linecap="round" stroke-linejoin="round"/>
</g>
</svg>
