<svg width="19" height="18" viewBox="0 0 19 18" fill="none" xmlns="http://www.w3.org/2000/svg">
<g id="Icon">
<path id="Vector" d="M13.8971 11.25L10 9V4.5M4.73437 6.34838H0.984375M0.984375 6.34838V2.59838M0.984375 6.34838L4.1664 3.16637C5.32018 2.01259 6.79019 1.22685 8.39054 0.908525C9.99088 0.590197 11.6497 0.753574 13.1572 1.378C14.6647 2.00242 15.9531 3.05984 16.8597 4.41655C17.7662 5.77325 18.25 7.36831 18.25 9C18.25 10.6317 17.7662 12.2268 16.8597 13.5835C15.9531 14.9402 14.6647 15.9976 13.1572 16.622C11.6497 17.2464 9.99088 17.4098 8.39054 17.0915C6.79019 16.7732 5.32018 15.9874 4.1664 14.8336" stroke="#3D4A5C" stroke-width="1.5" stroke-linecap="round" stroke-linejoin="round"/>
</g>
</svg>
