<svg width="14" height="14" viewBox="0 0 14 14" fill="none" xmlns="http://www.w3.org/2000/svg">
<path d="M13.5036 12.7383L11.212 10.4979L11.1583 10.4162C11.0584 10.3168 10.9219 10.2608 10.7794 10.2608C10.6368 10.2608 10.5003 10.3168 10.4004 10.4162C8.45291 12.2029 5.45202 12.3 3.38792 10.6431C1.32383 8.98627 0.837031 6.08956 2.25038 3.8741C3.66372 1.65863 6.53863 0.811882 8.96848 1.89541C11.3983 2.97894 12.6291 5.65651 11.8446 8.15238C11.7881 8.33269 11.8343 8.52877 11.9657 8.66676C12.0972 8.80475 12.294 8.86369 12.4819 8.82138C12.6699 8.77906 12.8205 8.64192 12.877 8.46161C13.8148 5.49975 12.3984 2.31235 9.544 0.961356C6.68958 -0.389641 3.25381 0.5012 1.45929 3.0576C-0.335235 5.61399 0.050038 9.06875 2.36587 11.187C4.68171 13.3052 8.23311 13.4512 10.7227 11.5306L12.7517 13.5143C12.9612 13.7183 13.3 13.7183 13.5096 13.5143C13.7189 13.3075 13.7189 12.9744 13.5096 12.7675L13.5036 12.7383Z" fill="#667085"/>
</svg>
