<svg width="133" height="131" viewBox="0 0 133 131" fill="none" xmlns="http://www.w3.org/2000/svg">
<circle cx="60.7768" cy="60.7768" r="60.7768" fill="#F5F8FF"/>
<circle cx="60.7769" cy="60.7769" r="47.2709" fill="#E4ECFE"/>
<path d="M89.029 101.448H32.6552C31.1888 101.448 30 100.26 30 98.7931V22.6552C30 21.1888 31.1888 20 32.6552 20H76.6726L91.6842 33.8569V98.7931C91.6842 100.26 90.4955 101.448 89.029 101.448Z" fill="#F5F8FF" stroke="#B7CEFF" stroke-width="2"/>
<path fill-rule="evenodd" clip-rule="evenodd" d="M36.7851 37.0238C36.7851 36.0145 37.6034 35.1962 38.6127 35.1962H73.9995C75.0089 35.1962 75.8271 36.0145 75.8271 37.0238C75.8271 38.0332 75.0089 38.8514 73.9995 38.8514H38.6127C37.6034 38.8514 36.7851 38.0332 36.7851 37.0238ZM36.7851 48.2887C36.7851 47.2794 37.6034 46.4611 38.6127 46.4611H84.2731C85.2824 46.4611 86.1007 47.2794 86.1007 48.2887C86.1007 49.2981 85.2824 50.1163 84.2731 50.1163H38.6127C37.6034 50.1163 36.7851 49.2981 36.7851 48.2887ZM36.7851 59.5536C36.7851 58.5443 37.6034 57.726 38.6127 57.726H51.1693C52.1787 57.726 52.9969 58.5443 52.9969 59.5536C52.9969 60.563 52.1787 61.3812 51.1693 61.3812H38.6127C37.6034 61.3812 36.7851 60.563 36.7851 59.5536ZM57.3323 59.5536C57.3323 58.5443 58.1505 57.726 59.1599 57.726H84.2731C85.2824 57.726 86.1007 58.5443 86.1007 59.5536C86.1007 60.563 85.2824 61.3812 84.2731 61.3812H59.1599C58.1505 61.3812 57.3323 60.563 57.3323 59.5536ZM36.7851 70.8185C36.7851 69.8092 37.6034 68.9909 38.6127 68.9909H71.7165C72.7258 68.9909 73.5441 69.8092 73.5441 70.8185C73.5441 71.8279 72.7258 72.6461 71.7165 72.6461H38.6127C37.6034 72.6461 36.7851 71.8279 36.7851 70.8185ZM77.8795 70.8185C77.8795 69.8092 78.6977 68.9909 79.7071 68.9909H84.2731C85.2824 68.9909 86.1007 69.8092 86.1007 70.8185C86.1007 71.8279 85.2824 72.6461 84.2731 72.6461H79.7071C78.6977 72.6461 77.8795 71.8279 77.8795 70.8185ZM36.7851 80.9569C36.7851 79.9476 37.6034 79.1293 38.6127 79.1293H80.8486C81.8579 79.1293 82.6761 79.9476 82.6761 80.9569C82.6761 81.9663 81.8579 82.7845 80.8486 82.7845H38.6127C37.6034 82.7845 36.7851 81.9663 36.7851 80.9569ZM36.7851 91.0953C36.7851 90.086 37.6034 89.2677 38.6127 89.2677H69.4335C70.4428 89.2677 71.2611 90.086 71.2611 91.0953C71.2611 92.1047 70.4428 92.9229 69.4335 92.9229H38.6127C37.6034 92.9229 36.7851 92.1047 36.7851 91.0953Z" fill="#B7CEFF"/>
<path d="M36.7851 37.0238C36.7851 36.0145 37.6033 35.1962 38.6127 35.1962H73.9995C75.0088 35.1962 75.8271 36.0145 75.8271 37.0238C75.8271 38.0332 75.0088 38.8514 73.9995 38.8514H38.6127C37.6033 38.8514 36.7851 38.0332 36.7851 37.0238Z" fill="#2D56B2"/>
<path d="M77.0636 19L92.6842 33.4191H81.0636C78.8544 33.4191 77.0636 31.6282 77.0636 29.4191V19Z" fill="#B7CEFF"/>
<rect width="14.7292" height="2.53951" rx="1.26976" transform="matrix(-0.707107 0.707107 0.707107 0.707107 20.4151 21.0001)" fill="#2D56B2"/>
<rect width="14.7292" height="2.53951" rx="1.26976" transform="matrix(0.707107 0.707107 0.707107 -0.707107 10 22.7957)" fill="#2D56B2"/>
<circle cx="26.3412" cy="56.3412" r="4.3412" stroke="#5388FE" stroke-width="4"/>
<circle cx="116.608" cy="69.6078" r="3.60776" stroke="#2D56B2" stroke-width="4"/>
<circle cx="10.1101" cy="77.1101" r="1.11008" stroke="#4F86FF" stroke-width="3"/>
<path d="M62.9146 123.958C84.7867 123.958 102.518 122.923 102.518 121.646C102.518 120.369 84.7867 119.333 62.9146 119.333C41.0425 119.333 23.3117 120.369 23.3117 121.646C23.3117 122.923 41.0425 123.958 62.9146 123.958Z" fill="#B7CEFF"/>
<path d="M83.7398 87.7785L89.6903 81.8279L114.211 102.757C117.214 105.32 117.395 109.899 114.603 112.691C111.811 115.483 107.232 115.302 104.669 112.299L83.7398 87.7785Z" fill="#1A3166"/>
<path d="M87.9646 92.7284L104.669 112.299C107.232 115.302 111.811 115.483 114.603 112.691C117.395 109.899 117.214 105.32 114.211 102.757L92.3642 84.1102C91.485 87.2796 89.9719 90.1976 87.9646 92.7284Z" fill="#2D56B2"/>
<path d="M76.9452 52.0705L61.5647 87.7787C61.3278 87.5955 61.0931 87.4057 60.8626 87.2138C59.3761 85.9566 58.0815 84.4796 57.0218 82.8315L70.3069 51.9876C72.5079 51.6252 74.7536 51.6533 76.9452 52.0705Z" fill="white"/>
<path d="M87.8789 58.2654L73.418 91.8381C70.4143 91.8414 67.4501 91.1384 64.7547 89.7833L80.545 53.1219C83.3424 54.2403 85.8514 55.9999 87.8789 58.2654Z" fill="white"/>
<path fill-rule="evenodd" clip-rule="evenodd" d="M64.6269 57.0064C61.8267 58.829 59.6086 61.4658 58.2624 64.5909C56.916 67.7165 56.5053 71.184 57.0853 74.5523C57.6652 77.9205 59.2079 81.0292 61.5092 83.4881C63.8098 85.9464 66.7642 87.6445 69.995 88.3778C73.2253 89.111 76.5959 88.849 79.6834 87.6228L79.6837 87.6227C81.7347 86.8084 83.6127 85.5875 85.2089 84.0266C86.8053 82.4655 88.0885 80.5949 88.9823 78.52C89.8761 76.4449 90.3622 74.2079 90.4112 71.9373C90.4601 69.6666 90.0709 67.4095 89.267 65.2955L89.2669 65.2952C88.0565 62.1113 85.9536 59.3756 83.2334 57.4275C80.5141 55.4799 77.2978 54.4048 73.9913 54.3302C70.6849 54.2556 67.4263 55.1844 64.6269 57.0064ZM53.0878 62.3619C54.8677 58.23 57.8105 54.7204 61.5534 52.2843C65.2971 49.8477 69.67 48.597 74.1185 48.6974C78.5669 48.7978 82.8805 50.2446 86.514 52.8468C90.1467 55.4485 92.9342 59.0862 94.5334 63.2932C95.5957 66.0869 96.1086 69.0652 96.0441 72.0587C95.9796 75.0522 95.3388 78.0051 94.1568 80.749C92.9748 83.493 91.2738 85.9761 89.1481 88.0549C87.0223 90.1336 84.5134 91.7672 81.763 92.8592C77.6202 94.5045 73.09 94.8578 68.7479 93.8723C64.4063 92.8868 60.457 90.6094 57.3955 87.338C54.3345 84.0673 52.2975 79.9496 51.5328 75.5084C50.7681 71.0674 51.3082 66.4932 53.0878 62.3619Z" fill="#2D56B2"/>
<path d="M112.012 102.952L94.3452 88.4859C93.7976 88.0375 93.1596 88.6681 93.603 89.2196L107.869 106.963C108.419 107.647 109.214 108.092 110.042 108.179L110.532 108.23C112.223 108.407 113.496 107.07 113.247 105.378L113.189 104.985C113.074 104.209 112.648 103.474 112.012 102.952Z" fill="#9FBDFF"/>
<rect width="22.9185" height="3.95147" rx="1.97574" transform="matrix(-0.707107 0.707107 0.707107 0.707107 80.2059 62.0001)" fill="#2D56B2"/>
<rect width="22.9185" height="3.95147" rx="1.97574" transform="matrix(0.707107 0.707107 0.707107 -0.707107 64 64.7941)" fill="#2D56B2"/>
<rect width="12.8004" height="2.20696" rx="1.10348" transform="matrix(-0.707107 0.707107 0.707107 0.707107 111.051 37.0001)" fill="#5388FE"/>
<rect width="12.8004" height="2.20696" rx="1.10348" transform="matrix(0.707107 0.707107 0.707107 -0.707107 102 38.5605)" fill="#5388FE"/>
<rect width="10.8561" height="1.87174" rx="0.935869" transform="matrix(-0.707107 0.707107 0.707107 0.707107 44.6765 107)" fill="#2D56B2"/>
<rect width="10.8561" height="1.87174" rx="0.935869" transform="matrix(0.707107 0.707107 0.707107 -0.707107 37 108.324)" fill="#2D56B2"/>
</svg>
