<svg width="22" height="22" viewBox="0 0 22 22" fill="none" xmlns="http://www.w3.org/2000/svg">
<g id="Icon">
<g id="Vector">
<path d="M11.0001 15.5001C13.4854 15.5001 15.5001 13.4854 15.5001 11.0001C15.5001 8.51481 13.4854 6.50009 11.0001 6.50009C8.51481 6.50009 6.50009 8.51481 6.50009 11.0001C6.50009 13.4854 8.51481 15.5001 11.0001 15.5001Z" stroke="#3D4A5C" stroke-width="1.5" stroke-linecap="round" stroke-linejoin="round"/>
<path d="M10.5193 3.13952L8.75029 1.81315C8.65538 1.74175 8.54485 1.69393 8.42783 1.67363C8.31081 1.65332 8.19063 1.66112 8.07721 1.69638C7.52933 1.86794 6.99779 2.08787 6.48885 2.35355C6.38349 2.40881 6.29279 2.48834 6.22422 2.58556C6.15566 2.68278 6.1112 2.79492 6.09452 2.91271L5.78179 5.10186C5.66259 5.20753 5.54589 5.31742 5.43169 5.43156C5.31753 5.54573 5.2076 5.66246 5.10191 5.78176L2.9131 6.09479C2.7955 6.11142 2.68353 6.15576 2.58642 6.22415C2.48932 6.29254 2.40986 6.38303 2.35459 6.48816C2.08849 6.99689 1.86814 7.52826 1.69613 8.076C1.66071 8.18957 1.65281 8.30994 1.67307 8.42717C1.69334 8.5444 1.7412 8.65513 1.81269 8.75022L3.13952 10.5193C3.12995 10.6783 3.12514 10.8385 3.12509 11C3.12509 11.1615 3.1299 11.3217 3.13953 11.4808L1.81315 13.2499C1.74175 13.3448 1.69393 13.4553 1.67363 13.5724C1.65332 13.6894 1.66112 13.8095 1.69638 13.923C1.86794 14.4708 2.08787 15.0024 2.35355 15.5113C2.40881 15.6167 2.48834 15.7074 2.58556 15.776C2.68278 15.8445 2.79492 15.889 2.91271 15.9057L5.10186 16.2184C5.20752 16.3376 5.31742 16.4543 5.43156 16.5685C5.54572 16.6827 5.66245 16.7926 5.78175 16.8983L6.09479 19.0871C6.11142 19.2047 6.15575 19.3167 6.22415 19.4138C6.29254 19.5109 6.38303 19.5903 6.48816 19.6456C6.99688 19.9117 7.52825 20.132 8.07599 20.304C8.18957 20.3395 8.30994 20.3474 8.42717 20.3271C8.5444 20.3068 8.65512 20.259 8.75022 20.1875L10.5193 18.8607C10.6783 18.8702 10.8385 18.875 11 18.8751C11.1614 18.8751 11.3217 18.8703 11.4808 18.8607L13.2499 20.187C13.3448 20.2584 13.4553 20.3063 13.5724 20.3266C13.6894 20.3469 13.8095 20.3391 13.923 20.3038C14.4708 20.1322 15.0024 19.9123 15.5113 19.6466C15.6167 19.5914 15.7074 19.5118 15.776 19.4146C15.8445 19.3174 15.889 19.2053 15.9057 19.0875L16.2184 16.8983C16.3376 16.7927 16.4543 16.6828 16.5685 16.5686C16.6827 16.4545 16.7926 16.3377 16.8983 16.2184L19.0871 15.9054C19.2047 15.8888 19.3167 15.8444 19.4138 15.776C19.5109 15.7076 19.5903 15.6172 19.6456 15.512C19.9117 15.0033 20.132 14.4719 20.304 13.9242C20.3395 13.8106 20.3474 13.6902 20.3271 13.573C20.3068 13.4558 20.259 13.3451 20.1875 13.25L18.8607 11.4809C18.8702 11.3219 18.875 11.1616 18.8751 11.0002C18.8751 10.8387 18.8703 10.6785 18.8607 10.5194L20.187 8.75029C20.2584 8.65538 20.3063 8.54485 20.3266 8.42783C20.3469 8.31081 20.3391 8.19063 20.3038 8.07721C20.1322 7.52933 19.9123 6.99779 19.6466 6.48885C19.5914 6.38349 19.5118 6.29279 19.4146 6.22422C19.3174 6.15566 19.2053 6.1112 19.0875 6.09452L16.8983 5.78179C16.7927 5.66259 16.6828 5.54589 16.5686 5.43169C16.4545 5.31753 16.3377 5.2076 16.2184 5.10191L15.9054 2.9131C15.8888 2.7955 15.8444 2.68353 15.776 2.58642C15.7076 2.48932 15.6172 2.40986 15.512 2.35459C15.0033 2.08849 14.4719 1.86814 13.9242 1.69613C13.8106 1.66071 13.6902 1.65281 13.573 1.67307C13.4558 1.69334 13.3451 1.7412 13.25 1.81269L11.4809 3.13952C11.3219 3.12995 11.1616 3.12514 11.0002 3.12509C10.8387 3.12509 10.6784 3.12989 10.5193 3.13952Z" stroke="#3D4A5C" stroke-width="1.5" stroke-linecap="round" stroke-linejoin="round"/>
</g>
</g>
</svg>
