<svg width="19" height="22" viewBox="0 0 19 22" fill="none" xmlns="http://www.w3.org/2000/svg">
<g id="Icon">
<path id="Vector" d="M6.52311 12.622L11.9767 16.1278M11.9767 5.87215L6.52312 9.378M17.5 17.75C17.5 19.4069 16.1569 20.75 14.5 20.75C12.8431 20.75 11.5 19.4069 11.5 17.75C11.5 16.0931 12.8431 14.75 14.5 14.75C16.1569 14.75 17.5 16.0931 17.5 17.75ZM7 11C7 12.6569 5.65685 14 4 14C2.34315 14 1 12.6569 1 11C1 9.34315 2.34315 8 4 8C5.65685 8 7 9.34315 7 11ZM17.5 4.25C17.5 5.90685 16.1569 7.25 14.5 7.25C12.8431 7.25 11.5 5.90685 11.5 4.25C11.5 2.59315 12.8431 1.25 14.5 1.25C16.1569 1.25 17.5 2.59315 17.5 4.25Z" stroke="#3D4A5C" stroke-width="1.5" stroke-linecap="round" stroke-linejoin="round"/>
</g>
</svg>
