<svg width="24" height="16" viewBox="0 0 24 16" fill="none" xmlns="http://www.w3.org/2000/svg">
<g id="Icon">
<path id="Vector" d="M14.3669 0.708862C13.9682 0.821194 13.7361 1.23546 13.8484 1.63415C13.9607 2.03284 14.375 2.26498 14.7737 2.15265L14.3669 0.708862ZM15.8931 10.9992L15.8925 10.2492C15.4784 10.2495 15.1429 10.5854 15.1431 10.9995C15.1432 11.4136 15.479 11.7492 15.8931 11.7492L15.8931 10.9992ZM22.0293 14.9355C22.2673 15.2745 22.735 15.3564 23.074 15.1184C23.413 14.8804 23.4949 14.4127 23.2569 14.0736L22.0293 14.9355ZM0.886449 14.0738C0.648226 14.4126 0.729804 14.8804 1.06866 15.1187C1.40751 15.3569 1.87533 15.2753 2.11355 14.9364L0.886449 14.0738ZM14.3869 14.936C14.6252 15.2748 15.093 15.3564 15.4318 15.1181C15.7706 14.8799 15.8522 14.412 15.6139 14.0732L14.3869 14.936ZM12.3754 6.12416C12.3754 8.40234 10.5286 10.2492 8.25039 10.2492V11.7492C11.357 11.7492 13.8754 9.23076 13.8754 6.12416H12.3754ZM8.25039 10.2492C5.97222 10.2492 4.12539 8.40234 4.12539 6.12416H2.62539C2.62539 9.23076 5.14379 11.7492 8.25039 11.7492V10.2492ZM4.12539 6.12416C4.12539 3.84599 5.97222 1.99916 8.25039 1.99916V0.499163C5.14379 0.499163 2.62539 3.01756 2.62539 6.12416H4.12539ZM8.25039 1.99916C10.5286 1.99916 12.3754 3.84599 12.3754 6.12416H13.8754C13.8754 3.01756 11.357 0.499163 8.25039 0.499163V1.99916ZM14.7737 2.15265C15.3411 1.99279 15.9361 1.95638 16.5187 2.04585L16.7464 0.563235C15.952 0.441225 15.1406 0.490883 14.3669 0.708862L14.7737 2.15265ZM16.5187 2.04585C17.1014 2.13533 17.6581 2.34862 18.1513 2.67137L18.9726 1.41618C18.3 0.976088 17.5409 0.685245 16.7464 0.563235L16.5187 2.04585ZM18.1513 2.67137C18.6446 2.99411 19.0629 3.41881 19.3782 3.91685L20.6456 3.11451C20.2157 2.43538 19.6452 1.85626 18.9726 1.41618L18.1513 2.67137ZM19.3782 3.91685C19.6936 4.4149 19.8985 4.97474 19.9792 5.55864L21.4651 5.35323C21.355 4.55702 21.0756 3.79364 20.6456 3.11451L19.3782 3.91685ZM19.9792 5.55864C20.0599 6.14255 20.0146 6.73698 19.8462 7.3019L21.2837 7.73031C21.5133 6.96 21.5751 6.14945 21.4651 5.35323L19.9792 5.55864ZM19.8462 7.3019C19.6779 7.86681 19.3904 8.38908 19.0032 8.83354L20.1342 9.81884C20.6622 9.21278 21.0542 8.50061 21.2837 7.73031L19.8462 7.3019ZM19.0032 8.83354C18.616 9.278 18.1381 9.63433 17.6015 9.87852L18.2229 11.2438C18.9545 10.9108 19.6062 10.4249 20.1342 9.81884L19.0032 8.83354ZM17.6015 9.87852C17.065 10.1227 16.4824 10.2491 15.893 10.2492L15.8931 11.7492C16.6969 11.7491 17.4914 11.5767 18.2229 11.2438L17.6015 9.87852ZM15.8936 11.7492C17.0971 11.7483 18.283 12.0374 19.3511 12.5921L20.0424 11.2609C18.7605 10.5951 17.337 10.2481 15.8925 10.2492L15.8936 11.7492ZM19.3511 12.5921C20.4191 13.1467 21.3378 13.9506 22.0293 14.9355L23.2569 14.0736C22.4269 12.8914 21.3243 11.9266 20.0424 11.2609L19.3511 12.5921ZM2.11355 14.9364C2.80572 13.9519 3.72463 13.1483 4.79268 12.5936L4.10129 11.2624C2.81967 11.9281 1.71703 12.8923 0.886449 14.0738L2.11355 14.9364ZM4.79268 12.5936C5.86071 12.0388 7.04687 11.7492 8.25042 11.7492L8.25036 10.2492C6.80622 10.2492 5.38293 10.5967 4.10129 11.2624L4.79268 12.5936ZM8.25042 11.7492C9.45392 11.7491 10.6395 12.0386 11.7076 12.5933L12.3989 11.2621C11.1172 10.5965 9.69457 10.2491 8.25036 10.2492L8.25042 11.7492ZM11.7076 12.5933C12.7757 13.148 13.6947 13.9515 14.3869 14.936L15.6139 14.0732C14.7833 12.8918 13.6806 11.9277 12.3989 11.2621L11.7076 12.5933Z" fill="#3D4A5C"/>
</g>
</svg>
